<svg class="w-80" xmlns="http://www.w3.org/2000/svg" id="modern-campus-logo" viewBox="0 0 262.831 65.562">
      
    <g id="Group_55" data-name="Group 55" transform="translate(-36 -468)">
       <rect class="logo-orange" id="Rectangle_720" data-name="Rectangle 720" width="0.911" height="56.357" transform="translate(183.646 468)"></rect>
       <path id="Path_165" class="logo-orange" data-name="Path 165" d="M184.624,501.428v1.482h-7.045v-11.8h6.961V492.6h-5.393v3.624h4.973v1.466h-4.973v3.742Z" transform="translate(22.912 3.74)"></path>
       <g id="Group_54" data-name="Group 54" transform="translate(36 468)">
          <g id="Group_53" data-name="Group 53" clip-path="url(#clip-path)">
             <path id="Path_166" class="logo-orange" data-name="Path 166" d="M192.6,497.3v5.174h-1.466v-5.089a1.943,1.943,0,0,0-2.09-2.159c-1.349,0-2.443.794-2.443,2.781v4.466h-1.467v-8.427H186.6v1.214a2.994,2.994,0,0,1,2.729-1.434A3.147,3.147,0,0,1,192.6,497.3" transform="translate(-11.865 -463.821)"></path>
             <path id="Path_167" class="logo-orange" data-name="Path 167" d="M201.828,494.045v8.072c0,2.629-2.106,3.944-4.3,3.944a4.19,4.19,0,0,1-3.994-2.056l1.28-.724c.388.791,1.1,1.415,2.748,1.415a2.5,2.5,0,0,0,2.815-2.579v-1.2a3.651,3.651,0,0,1-3.17,1.685,4.392,4.392,0,0,1,0-8.781,3.638,3.638,0,0,1,3.17,1.668v-1.449Zm-1.449,4.163a3,3,0,1,0-3,3,2.941,2.941,0,0,0,3-3" transform="translate(-10.606 -463.821)"></path>
             <path id="Path_168" class="logo-orange" data-name="Path 168" d="M211.01,494.044v8.428h-1.466v-1.45a3.645,3.645,0,0,1-3.186,1.668,4.436,4.436,0,0,1,0-8.865,3.645,3.645,0,0,1,3.186,1.668v-1.45Zm-1.466,4.214a2.992,2.992,0,1,0-3,3.017,2.948,2.948,0,0,0,3-3.017" transform="translate(-9.12 -463.82)"></path>
             <path id="Path_169" class="logo-orange" data-name="Path 169" d="M220.193,494.045v8.072c0,2.629-2.108,3.944-4.3,3.944a4.19,4.19,0,0,1-3.994-2.056l1.28-.724c.389.791,1.1,1.415,2.748,1.415a2.5,2.5,0,0,0,2.815-2.579v-1.2a3.649,3.649,0,0,1-3.168,1.685,4.392,4.392,0,0,1,0-8.781,3.636,3.636,0,0,1,3.168,1.668v-1.449Zm-1.45,4.163a3,3,0,1,0-3,3,2.941,2.941,0,0,0,3-3" transform="translate(-7.634 -463.821)"></path>
             <path id="Path_170" class="logo-orange" data-name="Path 170" d="M225.009,501.308a2.745,2.745,0,0,0,2.426-1.23l1.249.708a4.254,4.254,0,0,1-3.709,1.905,4.433,4.433,0,1,1-.1-8.866,4.244,4.244,0,0,1,4.2,4.45,4.478,4.478,0,0,1-.051.658h-7.063a2.884,2.884,0,0,0,3.051,2.376m-3.051-3.657h5.63a2.669,2.669,0,0,0-2.713-2.443,2.8,2.8,0,0,0-2.917,2.443" transform="translate(-6.148 -463.821)"></path>
             <path id="Path_171" class="logo-orange" data-name="Path 171" d="M241.592,497.23v5.242h-1.466V497.28a1.806,1.806,0,0,0-1.854-2.057c-1.179,0-2.073.742-2.073,2.563v4.686h-1.466V497.28c0-1.33-.691-2.057-1.786-2.057-1.13,0-2.159.742-2.159,2.563v4.686h-1.466v-8.428h1.466v1.129a2.82,2.82,0,0,1,2.512-1.348,2.65,2.65,0,0,1,2.477,1.432,2.985,2.985,0,0,1,2.647-1.432,3.093,3.093,0,0,1,3.168,3.4" transform="translate(-4.714 -463.82)"></path>
             <path id="Path_172" class="logo-orange" data-name="Path 172" d="M245.782,501.308a2.748,2.748,0,0,0,2.427-1.23l1.248.708a4.254,4.254,0,0,1-3.709,1.905,4.433,4.433,0,1,1-.1-8.866,4.244,4.244,0,0,1,4.2,4.45,4.476,4.476,0,0,1-.05.658h-7.063a2.884,2.884,0,0,0,3.051,2.376m-3.051-3.657h5.629a2.668,2.668,0,0,0-2.713-2.443,2.8,2.8,0,0,0-2.916,2.443" transform="translate(-2.786 -463.821)"></path>
             <path id="Path_173" class="logo-orange" data-name="Path 173" d="M257.561,497.3v5.174h-1.466v-5.089a1.943,1.943,0,0,0-2.09-2.159c-1.349,0-2.443.794-2.443,2.781v4.466h-1.467v-8.427h1.467v1.214a3,3,0,0,1,2.729-1.434,3.147,3.147,0,0,1,3.271,3.473" transform="translate(-1.352 -463.821)"></path>
             <path id="Path_174" class="logo-orange" data-name="Path 174" d="M260.73,495.759v4.567c0,1.281.74,1.2,2.24,1.129v1.315c-2.527.337-3.707-.338-3.707-2.445v-4.567h-1.668v-1.416h1.668v-1.922l1.467-.438v2.36h2.24v1.416Z" transform="translate(-0.138 -464.119)"></path>
             <path id="Path_175" class="logo-orange" data-name="Path 175" d="M184.624,516.667v1.483h-7.045v-11.8h6.961v1.483h-5.393v3.624h4.971v1.466h-4.971v3.742Z" transform="translate(-13.088 -461.793)"></path>
             <path id="Path_176" class="logo-orange" data-name="Path 176" d="M192.757,509.253l-3.37,8.428h-1.721l-3.37-8.428h1.585l2.647,6.861,2.645-6.861Z" transform="translate(-12.001 -461.324)"></path>
             <path id="Path_177" class="logo-orange" data-name="Path 177" d="M191.955,513.5a4.441,4.441,0,1,1,4.432,4.432,4.4,4.4,0,0,1-4.432-4.432m7.416,0a2.976,2.976,0,1,0-2.984,3,2.939,2.939,0,0,0,2.984-3" transform="translate(-10.761 -461.354)"></path>
             <rect id="Rectangle_721" class="logo-orange" data-name="Rectangle 721" width="1.466" height="12.305" transform="translate(191.812 44.053)"></rect>
             <path id="Path_178" class="logo-orange" data-name="Path 178" d="M211.905,509.253l-3.37,8.428h-1.72l-3.372-8.428h1.585l2.647,6.861,2.647-6.861Z" transform="translate(-8.902 -461.324)"></path>
             <path id="Path_179" class="logo-orange" data-name="Path 179" d="M215.654,516.548a2.754,2.754,0,0,0,2.428-1.23l1.247.708a4.254,4.254,0,0,1-3.709,1.905,4.433,4.433,0,1,1-.1-8.866,4.244,4.244,0,0,1,4.2,4.449,4.3,4.3,0,0,1-.051.658H212.6a2.884,2.884,0,0,0,3.051,2.377m-3.051-3.657h5.63a2.67,2.67,0,0,0-2.714-2.443,2.8,2.8,0,0,0-2.916,2.443" transform="translate(-7.662 -461.354)"></path>
             <path id="Path_180" class="logo-orange" data-name="Path 180" d="M228.462,506.353v11.8H227V516.7a3.645,3.645,0,0,1-3.186,1.668,4.436,4.436,0,0,1,0-8.866A3.645,3.645,0,0,1,227,511.172v-4.819ZM227,513.937a2.992,2.992,0,1,0-3,3.017,2.948,2.948,0,0,0,3-3.017" transform="translate(-6.296 -461.793)"></path>
             <path id="Path_181" class="logo-blue" data-name="Path 181" d="M74.865,475.523a10.217,10.217,0,1,0,10.2,10.2,9.895,9.895,0,0,0-10.2-10.2m0,17.022a6.809,6.809,0,1,1,6.575-6.826,6.53,6.53,0,0,1-6.575,6.826" transform="translate(-31.354 -466.782)"></path>
             <path id="Path_182" class="logo-blue" data-name="Path 182" d="M113.27,475.523a9.728,9.728,0,0,0-9.987,10.156c0,6.159,4.453,10.279,9.987,10.279a9.7,9.7,0,0,0,8.907-5.2l-3.122-1.249a6.376,6.376,0,0,1-5.659,3.038c-3.329,0-5.827-1.789-6.367-5.243h15.814c.042-.541.084-1.083.084-1.623,0-6.16-4.121-10.156-9.656-10.156m-6.2,8.657a5.8,5.8,0,0,1,6.2-5.245,5.745,5.745,0,0,1,6.035,5.245Z" transform="translate(-25.111 -466.782)"></path>
             <path id="Path_183" class="logo-blue" data-name="Path 183" d="M144.035,475.522c-2.123,0-5.284,1.082-6.449,3.454l-.078-2.913h-3.542v19.4h3.62v-10.53c0-4.2,3.246-5.828,5.951-5.828s4.7,2.081,4.7,5.328v11.029h3.619V484.221c.042-5.453-3-8.7-7.821-8.7" transform="translate(-20.146 -466.783)"></path>
             <path id="Path_184" class="logo-blue" data-name="Path 184" d="M125.787,478.98l-.079-2.916h-3.542v19.4h3.621V484.932c0-4.2,3.246-5.828,5.952-5.828a4.823,4.823,0,0,1,1.465.223l.451-3.692a9.625,9.625,0,0,0-1.417-.109c-2.123,0-5.285,1.082-6.451,3.454" transform="translate(-22.055 -466.782)"></path>
             <path id="Path_185" class="logo-orange" data-name="Path 185" d="M100.61,468v12.195c-.916-1.621-3.278-3.453-6.945-3.453-5.913,0-9.716,4.7-9.716,10.2,0,5.644,3.791,10.236,10.221,10.236a9.828,9.828,0,0,0,10.064-10.219V468Zm-6.618,25.761a6.82,6.82,0,0,1,0-13.611,6.694,6.694,0,0,1,6.618,6.789,6.575,6.575,0,0,1-6.618,6.822" transform="translate(-28.24 -468)"></path>
             <path id="Path_186" class="logo-blue" data-name="Path 186" d="M59.563,475.523a7.311,7.311,0,0,0-6.783,4.162,6.749,6.749,0,0,0-6.409-4.162c-2.748,0-5.286,1.373-6.244,3.5l-.079-2.955H36.508v19.394h3.62v-10.53c0-4.121,2.747-5.91,5.493-5.91,2.58,0,4.37,2.123,4.37,5.411v11.029h3.621v-9.74c0-4.328,1.789-6.742,5.243-6.7,2.83,0,4.619,2.164,4.619,5.411v11.029H67.1V484.222c0-5.453-2.664-8.7-7.533-8.7" transform="translate(-35.918 -466.782)"></path>
             <path id="Path_187" class="logo-blue" data-name="Path 187" d="M95.037,499.347a7.314,7.314,0,0,0-6.786,4.162,6.748,6.748,0,0,0-6.41-4.162c-2.747,0-5.285,1.373-6.244,3.5l-.078-2.955H71.977v19.4H75.6v-10.53c0-4.121,2.748-5.911,5.494-5.911,2.58,0,4.371,2.123,4.371,5.412v11.029h3.621v-9.74c0-4.329,1.792-6.743,5.245-6.7,2.83,0,4.619,2.165,4.619,5.412v11.029h3.621V508.046c0-5.453-2.664-8.7-7.532-8.7" transform="translate(-30.178 -462.927)"></path>
             <path id="Path_188" class="logo-blue" data-name="Path 188" d="M146.954,508.254l-2.871-.706c-1.249-.292-2.5-1-2.5-2.333a2.843,2.843,0,0,1,3.122-2.7c1.539,0,3.08,1,3.121,2.5h3.5c0-3.913-3.413-5.663-6.7-5.663-3.912,0-6.66,2.541-6.66,5.744,0,3.123,1.873,4.705,5.12,5.578l2.664.625c1.539.332,2.663,1.083,2.663,2.54,0,1.581-1.457,2.788-3.913,2.788-2.371,0-3.828-1.373-3.87-3.039h-3.372c.167,4,3.746,6.2,7.242,6.2,4.039,0,7.535-2.289,7.535-5.909,0-2.205-1.041-4.62-5.078-5.62" transform="translate(-19.613 -462.927)"></path>
             <path id="Path_189" class="logo-blue" data-name="Path 189" d="M69.032,519.284h3.5l0-9.739a10.154,10.154,0,1,0-20.308,0c0,6.16,4.337,10.237,9.872,10.237,2.693,0,5.77-1.232,6.858-3.539Zm-.078-9.739a6.54,6.54,0,1,1-13.068,0,6.539,6.539,0,1,1,13.068,0" transform="translate(-33.375 -462.927)"></path>
             <path id="Path_190" class="logo-orange" data-name="Path 190" d="M104.3,528.489V516.33c.913,1.618,3.269,3.453,6.927,3.453,5.9,0,9.687-4.747,9.687-10.237,0-5.637-3.779-10.2-10.192-10.2a9.786,9.786,0,0,0-10.037,10.2l0,18.944Zm6.6-25.692a6.8,6.8,0,0,1,0,13.57,6.719,6.719,0,0,1-6.6-6.822,6.506,6.506,0,0,1,6.6-6.748" transform="translate(-25.532 -462.927)"></path>
             <path id="Path_191" class="logo-blue" data-name="Path 191" d="M36,509.544c0-6.159,4.869-10.2,10.446-10.2a9.973,9.973,0,0,1,7.408,3.079L51.567,504.8a6.863,6.863,0,0,0-5-2.038,6.806,6.806,0,1,0,0,13.61,6.866,6.866,0,0,0,5-2.04l2.286,2.372a9.82,9.82,0,0,1-7.408,3.08A10.145,10.145,0,0,1,36,509.544" transform="translate(-36 -462.927)"></path>
             <path id="Path_192" class="logo-blue" data-name="Path 192" d="M127.872,519.708c2.12,0,5.283-1.082,6.447-3.454l.082,2.955,3.542,0,0-19.4h-3.621l-.006,10.488c0,4.2-3.245,5.827-5.95,5.827s-4.7-2.081-4.7-5.328l0-10.986h-3.62V511.01c-.042,5.452,3,8.7,7.823,8.7" transform="translate(-22.398 -462.852)"></path>
          </g>
       </g>
    </g>
    <g>
       <path class="logo-orange" d="M132.9,8.9h2v0.4h-0.8v2.3h-0.4V9.3h-0.8V8.9z M136.7,10.3l0.9-1.4h0.4v2.7h-0.4V9.7l-0.9,1.4h-0.1l-0.9-1.4v1.9h-0.4V8.9 h0.4L136.7,10.3z"></path>
    </g>
    <g>
       <path class="logo-orange" d="M224.8,44.6h2V45H226v2.3h-0.4V45h-0.8V44.6z M228.5,46l0.9-1.4h0.4v2.7h-0.4v-1.9l-0.9,1.4h-0.1l-0.9-1.4v1.9h-0.4v-2.7 h0.4L228.5,46z"></path>
    </g>
 </svg>